<mxfile host="app.diagrams.net" modified="2024-05-16T10:45:24.345Z" agent="Mozilla/5.0 (Windows NT 10.0; Win64; x64) AppleWebKit/537.36 (KHTML, like Gecko) Chrome/124.0.0.0 Safari/537.36" etag="GGZ457GewE9AMi9rfog5" version="24.3.1" type="google">
  <diagram name="Page-1" id="pDnEnD4h1jK3L6NKlTJQ">
    <mxGraphModel grid="1" page="1" gridSize="10" guides="1" tooltips="1" connect="1" arrows="1" fold="1" pageScale="1" pageWidth="827" pageHeight="1169" math="0" shadow="0">
      <root>
        <mxCell id="0" />
        <mxCell id="1" parent="0" />
        <mxCell id="XyONv37d2nzZUKQA3xhP-1" value="" style="rounded=0;whiteSpace=wrap;html=1;" vertex="1" parent="1">
          <mxGeometry x="220" y="170" width="350" height="390" as="geometry" />
        </mxCell>
        <mxCell id="XyONv37d2nzZUKQA3xhP-2" value="Server" style="shape=umlActor;verticalLabelPosition=bottom;verticalAlign=top;html=1;outlineConnect=0;" vertex="1" parent="1">
          <mxGeometry x="130" y="330" width="30" height="60" as="geometry" />
        </mxCell>
        <mxCell id="XyONv37d2nzZUKQA3xhP-3" value="Customer" style="shape=umlActor;verticalLabelPosition=bottom;verticalAlign=top;html=1;outlineConnect=0;" vertex="1" parent="1">
          <mxGeometry x="650" y="325" width="30" height="60" as="geometry" />
        </mxCell>
        <mxCell id="XyONv37d2nzZUKQA3xhP-5" value="Customer orders" style="ellipse;whiteSpace=wrap;html=1;" vertex="1" parent="1">
          <mxGeometry x="455" y="310" width="70" height="50" as="geometry" />
        </mxCell>
        <mxCell id="XyONv37d2nzZUKQA3xhP-6" value="takes meal and drink orders" style="ellipse;whiteSpace=wrap;html=1;fillColor=default;" vertex="1" parent="1">
          <mxGeometry x="265" y="220" width="90" height="50" as="geometry" />
        </mxCell>
        <mxCell id="XyONv37d2nzZUKQA3xhP-7" value="need to know menu in detail and be able to describe the special for the day" style="ellipse;whiteSpace=wrap;html=1;" vertex="1" parent="1">
          <mxGeometry x="240" y="280" width="140" height="90" as="geometry" />
        </mxCell>
        <mxCell id="XyONv37d2nzZUKQA3xhP-8" value="Customer asks for the special of the day" style="ellipse;whiteSpace=wrap;html=1;" vertex="1" parent="1">
          <mxGeometry x="430" y="390" width="120" height="50" as="geometry" />
        </mxCell>
        <mxCell id="XyONv37d2nzZUKQA3xhP-9" value="enters all meal order details per table on the terminal (MOBS)" style="ellipse;whiteSpace=wrap;html=1;" vertex="1" parent="1">
          <mxGeometry x="245" y="382.5" width="130" height="65" as="geometry" />
        </mxCell>
        <mxCell id="XyONv37d2nzZUKQA3xhP-10" value="orders are printed out except coffee" style="ellipse;whiteSpace=wrap;html=1;" vertex="1" parent="1">
          <mxGeometry x="330" y="480" width="130" height="65" as="geometry" />
        </mxCell>
        <mxCell id="XyONv37d2nzZUKQA3xhP-11" value="" style="endArrow=none;html=1;rounded=0;entryX=0;entryY=0.5;entryDx=0;entryDy=0;" edge="1" parent="1" target="XyONv37d2nzZUKQA3xhP-6">
          <mxGeometry width="50" height="50" relative="1" as="geometry">
            <mxPoint x="160" y="360" as="sourcePoint" />
            <mxPoint x="210" y="310" as="targetPoint" />
          </mxGeometry>
        </mxCell>
        <mxCell id="XyONv37d2nzZUKQA3xhP-12" value="" style="endArrow=none;html=1;rounded=0;entryX=0;entryY=0.5;entryDx=0;entryDy=0;" edge="1" parent="1">
          <mxGeometry width="50" height="50" relative="1" as="geometry">
            <mxPoint x="160" y="360" as="sourcePoint" />
            <mxPoint x="240" y="325" as="targetPoint" />
          </mxGeometry>
        </mxCell>
        <mxCell id="XyONv37d2nzZUKQA3xhP-13" value="" style="endArrow=none;html=1;rounded=0;entryX=0;entryY=0.5;entryDx=0;entryDy=0;" edge="1" parent="1">
          <mxGeometry width="50" height="50" relative="1" as="geometry">
            <mxPoint x="160" y="360" as="sourcePoint" />
            <mxPoint x="245" y="420" as="targetPoint" />
          </mxGeometry>
        </mxCell>
        <mxCell id="XyONv37d2nzZUKQA3xhP-14" value="" style="endArrow=none;html=1;rounded=0;entryX=0;entryY=0.5;entryDx=0;entryDy=0;" edge="1" parent="1" target="XyONv37d2nzZUKQA3xhP-10">
          <mxGeometry width="50" height="50" relative="1" as="geometry">
            <mxPoint x="160" y="360" as="sourcePoint" />
            <mxPoint x="330" y="500" as="targetPoint" />
          </mxGeometry>
        </mxCell>
        <mxCell id="XyONv37d2nzZUKQA3xhP-15" value="" style="endArrow=none;html=1;rounded=0;exitX=0.957;exitY=0.64;exitDx=0;exitDy=0;exitPerimeter=0;" edge="1" parent="1" source="XyONv37d2nzZUKQA3xhP-5">
          <mxGeometry width="50" height="50" relative="1" as="geometry">
            <mxPoint x="600" y="410" as="sourcePoint" />
            <mxPoint x="650" y="360" as="targetPoint" />
          </mxGeometry>
        </mxCell>
        <mxCell id="XyONv37d2nzZUKQA3xhP-16" value="" style="endArrow=none;html=1;rounded=0;exitX=0.957;exitY=0.64;exitDx=0;exitDy=0;exitPerimeter=0;" edge="1" parent="1">
          <mxGeometry width="50" height="50" relative="1" as="geometry">
            <mxPoint x="550" y="420" as="sourcePoint" />
            <mxPoint x="650" y="360" as="targetPoint" />
          </mxGeometry>
        </mxCell>
        <mxCell id="c8jRHEfgiWzX-wwNZzsS-1" value="Dining Room" style="text;html=1;align=center;verticalAlign=middle;whiteSpace=wrap;rounded=0;" vertex="1" parent="1">
          <mxGeometry x="350" y="170" width="90" height="30" as="geometry" />
        </mxCell>
      </root>
    </mxGraphModel>
  </diagram>
</mxfile>
